<?xml version="1.0" encoding="UTF-8"?>
<svg width="107px" height="109px" viewBox="0 0 107 109" version="1.1" xmlns="http://www.w3.org/2000/svg" xmlns:xlink="http://www.w3.org/1999/xlink">
    <!-- Generator: Sketch 52.2 (67145) - http://www.bohemiancoding.com/sketch -->
    <title>lost abd found</title>
    <desc>Created with Sketch.</desc>
    <g id="lost-abd-found" stroke="none" stroke-width="1" fill="none" fill-rule="evenodd">
        <g id="accident-copy" transform="translate(4.000000, 27.000000)">
            <path d="M68.5440767,32.2058689 C68.5440767,31.2940241 69.0337774,30.4885102 69.7690706,30.0716012 L71,26.2498089 L64.7437021,24.9218201 L60.500371,20 L56.2562979,24.9218201 L50,26.2498089 L51.047663,29.5024631 C53.7469527,29.559071 55.9187013,31.8325633 55.9187013,34.6300603 L55.9187013,40.0055078 L56.2562979,40.077415 L60.500371,45 L64.7437021,40.077415 L68.5440767,39.2711362 L68.5440767,32.2058689 Z" id="Path" fill="#FF5050"></path>
            <path d="M48.41679,48 L55,48 L55,35.0802846 C55,32.2749126 52.6844995,30 49.8290757,30 L30.458935,30 L30.458935,48 L30,48 L34.6202025,48" id="Path" fill="#707487"></path>
            <polyline id="Path" fill="#FCD5A2" points="2 47 31 47 31 2 2 2"></polyline>
            <path d="M31,29 L49,29 L46.3634228,20.3558886 C45.3909396,17.1670954 42.5376677,15 39.3121644,15 L31,15 L31,29 Z" id="Path" fill="#E4EAF8"></path>
            <path d="M49,46.9996087 C49,50.8661039 45.8653212,54 41.9996086,54 C38.133896,54 35,50.8661039 35,46.9996087 C35,43.1338963 38.133896,40 41.9996086,40 C45.8653212,40 49,43.1338963 49,46.9996087 Z" id="Path" fill="#06B0F2"></path>
            <path d="M97,29 L79.8468118,29 L70.1040057,30.1914876 C68.9023629,30.3383835 68,31.3436547 68,32.5351425 L68,48 L97,48" id="Path" fill="#707487"></path>
            <polyline id="Path" fill="#E4EAF8" points="97 13 88.7390788 13 82.1300429 28.7944546 80 29 97 29"></polyline>
            <path d="M89,48.0000001 C89,51.3138204 86.3136493,54 82.9996181,54 C79.6863505,54 77,51.3138204 77,48.0000001 C77,44.6861798 79.6863505,42 82.9996181,42 C86.3136493,42 89,44.6861798 89,48.0000001 Z" id="Path" fill="#06B0F2"></path>
            <path d="M24,11 C23.4742186,11 22.9578124,10.7859898 22.5859374,10.4142056 C22.49375,10.3220407 22.4101562,10.2181597 22.3382812,10.1103736 C22.2664062,10.0002441 22.2039062,9.88464747 22.1539062,9.76436423 C22.1039062,9.644081 22.0664062,9.51833049 22.0398436,9.39023676 C22.0140624,9.26214303 22,9.13014406 22,9.00048811 C22,8.86848913 22.0140624,8.73883338 22.0398436,8.60839642 C22.0664062,8.48030269 22.1039062,8.35455219 22.1539062,8.23505016 C22.2039062,8.11476692 22.2664062,7.99838913 22.3382812,7.88904082 C22.4101562,7.78125454 22.49375,7.67737369 22.5859374,7.58520879 C22.6781248,7.49304369 22.7796874,7.40868928 22.8898436,7.33683183 C22.9984374,7.26497437 23.1140624,7.20327063 23.2359374,7.15328283 C23.35625,7.10329503 23.4820312,7.06502318 23.6101562,7.03924827 C23.8679686,6.98691724 24.1343748,6.98691724 24.3921874,7.03924827 C24.5179686,7.06502318 24.64375,7.10329503 24.7664062,7.15328283 C24.8859374,7.20327063 25.0023436,7.26497437 25.1101562,7.33683183 C25.2203124,7.40868928 25.3218748,7.49304369 25.4140624,7.58520879 C25.50625,7.67737369 25.5898436,7.78047353 25.6640624,7.88904082 C25.7359374,7.99917014 25.7984374,8.11476692 25.8484374,8.23505016 C25.8984374,8.35455219 25.9359374,8.48030269 25.9617186,8.60839642 C25.9882812,8.73883338 26,8.86848913 26,9.00048811 C26,9.13014406 25.9882812,9.26292404 25.9617186,9.39023676 C25.9359374,9.51833049 25.8984374,9.644081 25.8484374,9.76436423 C25.7984374,9.88464747 25.7359374,10.0002441 25.6640624,10.1103736 C25.5898436,10.2181597 25.50625,10.3220407 25.4140624,10.4142056 C25.3218748,10.5063705 25.2203124,10.5899439 25.1101562,10.6618014 C25.0023436,10.73444 24.8859374,10.7961436 24.7664062,10.8461314 C24.64375,10.8961192 24.5179686,10.9343912 24.3921874,10.9601661 C24.2617186,10.985941 24.1296874,11 24,11 Z" id="Path" fill="#000000"></path>
            <path d="M70.3571321,31.5109326 L80.0001754,30.3099537 L97.0664062,30.3099537 C98.1344148,30.3099537 99,29.4421592 99,28.3714252 C99,27.3014483 98.1344148,26.4328966 97.0664062,26.4328966 L84.9217758,26.4328966 L89.9717789,15.042527 L97.0664062,15.042527 C98.1344148,15.042527 99,14.1747327 99,13.1039984 C99,12.0332644 98.1344148,11.1654699 97.0664062,11.1654699 L88.714943,11.1654699 C87.9505692,11.1654699 87.2579499,11.6167836 86.9482727,12.3164712 L80.7282943,26.348086 L79.7056046,26.4412263 L79.7048493,26.4412263 C79.6904984,26.4419835 79.6753922,26.4434979 79.6610413,26.4457696 C79.6587753,26.4457696 79.655754,26.4457696 79.6527328,26.4465268 C79.6497116,26.4465268 79.6459351,26.4472842 79.6421586,26.4480414 L72.0905685,27.3885305 L72.3239593,26.7562372 C72.5195846,26.2261706 72.474266,25.6370398 72.2008439,25.1425636 C71.9274215,24.6480874 71.4523315,24.2982435 70.9001998,24.1846577 L65.1598434,23.0003382 L61.2669755,18.6091167 C60.8998947,18.1949076 60.3741989,17.9586494 59.8220672,17.9586494 C59.2691804,17.9586494 58.7434846,18.1949076 58.3764038,18.6091167 L54.4744719,23.0101822 L49.519638,24.0990899 L48.3390885,20.3568213 C47.1056672,16.4487173 43.5307846,13.8226172 39.441536,13.8226172 L33.0599212,13.8226172 L33.0599212,1.93852853 C33.0599212,0.867794314 32.1943359,0 31.1263274,0 L1.93359375,0 C0.86558523,0 0,0.867794314 0,1.93852853 C0,3.00926274 0.86558523,3.87705705 1.93359375,3.87705705 L29.1934891,3.87705705 L29.1934891,45.3502089 L25.6556168,45.3502089 L25.6556168,16.4464458 C25.6556168,15.3757116 24.7892761,14.5079173 23.7220231,14.5079173 C22.6540145,14.5079173 21.7884293,15.3757116 21.7884293,16.4464458 L21.7884293,45.3502089 L1.93359375,45.3502089 C0.86558523,45.3502089 0,46.2187606 0,47.2887374 C0,48.3594716 0.86558523,49.227266 1.93359375,49.227266 L33.4851608,49.227266 C34.3666077,53.1005369 37.8304597,56 41.9567184,56 C46.0829773,56 49.5468293,53.1012941 50.428276,49.227266 L55.158783,49.227266 C56.226036,49.227266 57.0923767,48.3594716 57.0923767,47.2887374 L57.0923767,44.4831718 L58.3764038,45.9317675 C58.7434846,46.3459765 59.2699357,46.5829919 59.8220672,46.5829919 C60.3741989,46.5829919 60.9006501,46.3459765 61.2677307,45.9317675 L65.1681519,41.5322165 L66.0767899,41.3345773 L66.0767899,47.7642827 C66.0767899,48.8342595 66.9431306,49.7028112 68.0103837,49.7028112 L74.8308334,49.7028112 C75.5672607,53.292118 78.7433395,56 82.5387727,56 C86.3334504,56 89.5095292,53.292118 90.2459563,49.7028112 L97.0664062,49.7028112 C98.1344148,49.7028112 99,48.8342595 99,47.7642827 C99,46.6935487 98.1344148,45.8257542 97.0664062,45.8257542 L90.0699691,45.8257542 C89.0910873,42.5870486 86.0849533,40.2221952 82.5380172,40.2221952 C78.9918366,40.2221952 75.9864579,42.5870486 75.0068206,45.8257542 L69.9439774,45.8257542 L69.9439774,31.9796628 C69.9439774,31.7418902 70.1214753,31.5404649 70.3571321,31.5109326 Z M82.5380172,44.0992522 C84.7450333,44.0992522 86.53965,45.8992064 86.53965,48.1110977 C86.53965,50.322989 84.7450333,52.1229429 82.5380172,52.1229429 C80.3317566,52.1229429 78.5371399,50.322989 78.5371399,48.1110977 C78.5371399,45.8992064 80.3317566,44.0992522 82.5380172,44.0992522 Z M39.441536,17.6996742 C41.8358688,17.6996742 43.9303435,19.2376239 44.6524201,21.5259963 L46.493866,27.3635417 L33.0599212,27.3635417 L33.0599212,17.6996742 L39.441536,17.6996742 Z M41.9567184,52.1229429 C39.298027,52.1229429 37.1355744,49.9542142 37.1355744,47.2887374 C37.1355744,44.6240179 39.298027,42.4552891 41.9567184,42.4552891 C44.6154098,42.4552891 46.7786178,44.6240179 46.7786178,47.2887374 C46.7786178,49.9542142 44.6154098,52.1229429 41.9567184,52.1229429 Z M53.2244339,45.3502089 L50.428276,45.3502089 C49.5468293,41.4776954 46.0829773,38.5782321 41.9567184,38.5782321 C37.8304597,38.5782321 34.3666077,41.4769382 33.4851608,45.3502089 L33.0599212,45.3502089 L33.0599212,31.2405988 L50.0944291,31.2405988 C51.8203125,31.2405988 53.2244339,32.6490609 53.2244339,34.379349 L53.2244339,45.3502089 Z M63.7323075,37.87703 C63.3312378,37.9641124 62.968689,38.176139 62.6960221,38.4835774 L59.8220672,41.7260693 L57.0916214,38.6463835 L57.0916214,34.379349 C57.0916214,31.094452 54.8287125,28.3305342 51.7840576,27.5710248 L55.916359,26.6630969 C56.3151627,26.5752573 56.6762008,26.3632308 56.9473572,26.0573067 L59.8220672,22.8148148 L62.6960221,26.0573067 C62.9732209,26.3692887 63.3433228,26.5835868 63.7511902,26.6676402 L67.9159699,27.5271051 L67.443901,28.8060795 C67.4423905,28.8098658 67.4408798,28.813652 67.4401245,28.8166809 C66.5971985,29.6148094 66.0767899,30.7438509 66.0767899,31.9796628 L66.0767899,37.3674091 L63.7323075,37.87703 Z" id="Shape" fill="#000000" fill-rule="nonzero"></path>
        </g>
    </g>
</svg>