<?xml version="1.0" encoding="UTF-8"?>
<svg width="107px" height="109px" viewBox="0 0 107 109" version="1.1" xmlns="http://www.w3.org/2000/svg" xmlns:xlink="http://www.w3.org/1999/xlink">
    <!-- Generator: Sketch 52.2 (67145) - http://www.bohemiancoding.com/sketch -->
    <title>lost abd found</title>
    <desc>Created with Sketch.</desc>
    <g id="lost-abd-found" stroke="none" stroke-width="1" fill="none" fill-rule="evenodd">
        <g id="Group-6-Copy" transform="translate(23.000000, 22.000000)">
            <g id="Group-2">
                <path d="M5.5,66 C2.475,66 0,63.4285714 0,60.2857143 L0,34 L11,34 L11,60.2857143 C11,63.4285714 8.525,66 5.5,66 Z" id="Path" fill="#9BAED2"></path>
                <rect id="Rectangle" fill="#9BAED2" x="11" y="0" width="50" height="12"></rect>
                <path d="M10.4912728,39.4222222 L10.4912728,47.5111111 L10.4912728,60.2222222 C10.4912728,63.4 8.02020004,66 5,66 L10.4912728,66 L17.0808002,66 L55.5197097,66 C58.5464993,66 61,63.4184889 61,60.2337778 L61,14 L10.4912728,14 L10.4912728,39.4222222 Z" id="Path" fill="#5775AD"></path>
                <rect id="Rectangle" fill="#F6F6F6" x="24" y="5" width="24" height="5"></rect>
            </g>
            <rect id="Rectangle" fill="#F4F3ED" x="11" y="12" width="50" height="2"></rect>
            <rect id="Rectangle" fill="#61B872" x="15" y="19" width="14" height="14"></rect>
            <path d="M55.7777778,20 L36.2222222,20 C35.5463333,20 35,19.553 35,19 C35,18.447 35.5463333,18 36.2222222,18 L55.7777778,18 C56.4536667,18 57,18.447 57,19 C57,19.553 56.4536667,20 55.7777778,20 Z" id="Path" fill="#CEC9AE"></path>
            <path d="M55.7777778,27 L36.2222222,27 C35.5463333,27 35,26.553 35,26 C35,25.447 35.5463333,25 36.2222222,25 L55.7777778,25 C56.4536667,25 57,25.447 57,26 C57,26.553 56.4536667,27 55.7777778,27 Z" id="Path" fill="#CEC9AE"></path>
            <path d="M55.7777778,34 L36.2222222,34 C35.5463333,34 35,33.553 35,33 C35,32.447 35.5463333,32 36.2222222,32 L55.7777778,32 C56.4536667,32 57,32.447 57,33 C57,33.553 56.4536667,34 55.7777778,34 Z" id="Path" fill="#CEC9AE"></path>
            <path d="M55.8,41 L16.2,41 C15.5364,41 15,40.553 15,40 C15,39.447 15.5364,39 16.2,39 L55.8,39 C56.4636,39 57,39.447 57,40 C57,40.553 56.4636,41 55.8,41 Z" id="Path" fill="#CEC9AE"></path>
            <path d="M33.8235294,49 L16.1764706,49 C15.5258824,49 15,48.553 15,48 C15,47.447 15.5258824,47 16.1764706,47 L33.8235294,47 C34.4741176,47 35,47.447 35,48 C35,48.553 34.4741176,49 33.8235294,49 Z" id="Path" fill="#CEC9AE"></path>
            <path d="M33.8235294,56 L16.1764706,56 C15.5258824,56 15,55.553 15,55 C15,54.447 15.5258824,54 16.1764706,54 L33.8235294,54 C34.4741176,54 35,54.447 35,55 C35,55.553 34.4741176,56 33.8235294,56 Z" id="Path" fill="#CEC9AE"></path>
            <path d="M33.8235294,63 L16.1764706,63 C15.5258824,63 15,62.553 15,62 C15,61.447 15.5258824,61 16.1764706,61 L33.8235294,61 C34.4741176,61 35,61.447 35,62 C35,62.553 34.4741176,63 33.8235294,63 Z" id="Path" fill="#CEC9AE"></path>
            <rect id="Rectangle" fill="#F7B563" x="42" y="48" width="14" height="14"></rect>
        </g>
    </g>
</svg>