<?xml version="1.0" encoding="UTF-8"?>
<svg width="107px" height="109px" viewBox="0 0 107 109" version="1.1" xmlns="http://www.w3.org/2000/svg" xmlns:xlink="http://www.w3.org/1999/xlink">
    <!-- Generator: Sketch 52.2 (67145) - http://www.bohemiancoding.com/sketch -->
    <title>lost abd found</title>
    <desc>Created with Sketch.</desc>
    <g id="lost-abd-found" stroke="none" stroke-width="1" fill="none" fill-rule="evenodd">
        <g id="Group-5-Copy" transform="translate(15.000000, 25.000000)" fill="#E95353">
            <path d="M71.3333333,9 L66,9 L66,60 L71.3333333,60 C75,60 78,57.13125 78,53.625 L78,15.375 C78,11.86875 75,9 71.3333333,9 Z" id="Path"></path>
            <path d="M0,15.375 L0,53.625 C0,57.13125 3,60 6.66666667,60 L12,60 L12,9 L6.66666667,9 C3,9 0,11.86875 0,15.375 Z" id="Path"></path>
            <path d="M52.3947368,9.47368421 L52.3947368,4.37557895 C52.3947368,1.96926316 50.3844474,0 47.928,0 L31.072,0 C28.6155526,0 26.6052632,1.96926316 26.6052632,4.37557895 L26.6052632,9.47368421 L15,9.47368421 L15,60 L64,60 L64,9.47368421 L52.3947368,9.47368421 Z M33.0526316,5.05263158 L45.9473684,5.05263158 L45.9473684,9.47368421 L33.0526316,9.47368421 L33.0526316,5.05263158 Z M41.7140263,52.1381053 L37.2872632,52.1381053 L37.2872632,47.8004211 L41.7140263,47.8004211 L41.7140263,52.1381053 Z M49.4495789,33.8968421 C48.5959474,35.2648421 47.1607632,36.7755789 45.1478947,38.4252632 C43.8390789,39.4837895 42.9261316,40.5738947 42.4064737,41.6930526 C41.8868158,42.8134737 41.6508421,44.1663158 41.7011316,45.7566316 L37.2743684,45.7566316 C37.2060263,43.5157895 37.5516053,41.6109474 38.3059474,40.0357895 C39.059,38.4631579 40.3678158,36.9271579 42.2298158,35.4303158 C43.5708684,34.3705263 44.5276579,33.3827368 45.0976053,32.4682105 C45.6675526,31.5511579 45.9525263,30.5570526 45.9525263,29.4833684 C45.9525263,27.8324211 45.4070789,26.5174737 44.3161842,25.5334737 C43.2433421,24.5646316 41.7823684,24.0808421 39.9384211,24.0808421 C37.6560526,24.0808421 35.9462105,24.6467368 34.8063158,25.7835789 C33.6651316,26.9178947 32.9623684,28.7570526 32.6928684,31.2985263 L28.2648158,31.2985263 C28.4492105,27.8501053 29.5555789,25.1861053 31.5865,23.3103158 C33.6135526,21.4345263 36.3988158,20.4947368 39.9384211,20.4947368 C43.1582368,20.4947368 45.7616842,21.3233684 47.7513421,22.9806316 C49.7384211,24.6366316 50.7338947,26.8054737 50.7338947,29.4833684 C50.7338947,31.056 50.3057895,32.5263158 49.4495789,33.8968421 Z" id="Shape" fill-rule="nonzero"></path>
        </g>
    </g>
</svg>