<?xml version="1.0" encoding="UTF-8"?>
<svg width="103px" height="94px" viewBox="0 0 103 94" version="1.1" xmlns="http://www.w3.org/2000/svg" xmlns:xlink="http://www.w3.org/1999/xlink">
    <!-- Generator: Sketch 52.2 (67145) - http://www.bohemiancoding.com/sketch -->
    <title>lost abd found</title>
    <desc>Created with Sketch.</desc>
    <g id="lost-abd-found" stroke="none" stroke-width="1" fill="none" fill-rule="evenodd">
        <g id="find-my-friend-copy" transform="translate(21.000000, 17.000000)">
            <path d="M42.9376162,38 L58.9983265,54.0608879 C60.3431333,55.4056994 60.3324157,57.616929 58.9746992,58.9746502 C57.6168608,60.3324933 55.4056389,60.3430891 54.0609539,58.9982776 L38,42.9375115 L42.9376162,38 Z" id="Path" fill="#5A54E0"></path>
            <polygon id="Rectangle" fill="#FFFFFF" transform="translate(42.607346, 42.622405) rotate(-45.000000) translate(-42.607346, -42.622405) " points="39.192213 39.905608 46.0224795 39.905608 46.0224795 45.3392024 39.192213 45.3392024"></polygon>
            <path d="M47,24 C47,11.2970375 36.7029356,1 23.9999401,1 C11.2969446,1 1,11.2970375 1,24 C1,36.7029625 11.2970644,47 24.0000599,47 C36.7030554,47 47,36.7028426 47,24 Z" id="Path" fill="#72D8FF"></path>
            <circle id="Oval" fill="#FFFFFF" cx="24" cy="24" r="17"></circle>
            <path d="M27.0118115,23 L20.9880694,23 C17.1286167,23 14,26.2920321 14,30.3527938 L14,31 L34,31 L34,30.3527938 C33.9998809,26.2919068 30.8711452,23 27.0118115,23 Z" id="Path" fill="#FF5D5D"></path>
            <path d="M23.5,13 C21.0146602,13 19,14.9094338 19,17.2649634 L19,18.7350366 C19,21.0905662 21.0146602,23 23.5,23 C25.9853398,23 28,21.0905662 28,18.7350366 L28,17.2649634 C28,14.9094338 25.9853398,13 23.5,13 Z" id="Path" fill="#FCC69D"></path>
            <path d="M59.6685888,53.1545722 L48.6190598,42.1102115 C48.9227729,41.6480639 48.8715183,41.0210254 48.4649386,40.614755 C48.058478,40.2084845 47.4310269,40.1571348 46.9687823,40.4607058 L44.0202149,37.5135175 C46.2240417,34.2434575 47.6113714,30.4558493 48.0127065,26.5054948 C48.5623222,21.0950686 47.2534239,15.6106558 44.3271462,11.062214 C43.9709867,10.5088045 43.2336362,10.3487983 42.680087,10.704553 C42.1265378,11.0604269 41.9663375,11.7975516 42.3222587,12.3508419 C47.7946958,20.8565485 46.5656592,32.228785 39.3999145,39.391178 C30.9429126,47.8442244 17.1823751,47.8442244 8.725254,39.391178 C0.268252049,30.9382508 0.268252049,17.1841496 8.725254,8.73098414 C15.8986273,1.56096608 26.9139468,0.290805019 35.512316,5.64154165 C36.0708715,5.98919477 36.8059572,5.81846587 37.1538922,5.25993337 C37.5018272,4.70152001 37.33078,3.96689726 36.7721053,3.619125 C32.2345274,0.79548584 26.7930814,-0.440005217 21.4491382,0.139853508 C16.0236646,0.72876694 10.9064334,3.18163964 7.03969424,7.04633191 C-2.34656475,16.4283198 -2.34656475,31.6939615 7.03969424,41.0758302 C11.7329429,45.7668837 17.8976742,48.1122914 24.0625247,48.1122914 C28.7592301,48.1122914 33.4549819,46.7493195 37.5008736,44.0267119 L40.4346606,46.9591267 C39.9938714,47.4259207 40.000904,48.1611391 40.457904,48.6180444 C40.690695,48.8507266 40.9956,48.966889 41.3006242,48.966889 C41.5948016,48.966889 41.8882637,48.8576368 42.117598,48.6412769 L53.1507971,59.6693154 C54.0388121,60.556915 55.206224,61 56.3768543,61 C57.5582122,61 58.7429077,60.5483369 59.6455839,59.6460829 C61.4423541,57.8500339 61.4528434,54.9378731 59.6685888,53.1545722 Z M43.1071686,39.9702028 L45.2658198,42.1278443 L42.11879,45.2734022 L39.9601388,43.1157606 L43.1071686,39.9702028 Z M57.9600241,57.9615498 C57.0922725,58.8287764 55.6909968,58.8392608 54.8362376,57.9846631 L43.8042306,46.9578161 L46.9512604,43.8122583 L57.9831482,54.8391053 C58.8380266,55.6937029 58.8276565,57.0943233 57.9600241,57.9615498 Z" id="Shape" fill="#000000" fill-rule="nonzero"></path>
            <path d="M39.3130467,8.71052372 C39.5060757,8.90354085 39.7589013,9 40.0118257,9 C40.2647501,9 40.5176745,8.90354085 40.7106047,8.71052372 C41.0964651,8.32468713 41.0964651,7.69898748 40.7106047,7.31295322 L40.689157,7.29150687 C40.3044826,6.90448431 39.6787443,6.90260652 39.291599,7.28725714 C38.9044537,7.67190776 38.9025758,8.29760741 39.287349,8.68472881 L39.3130467,8.71052372 Z" id="Path" fill="#000000"></path>
            <path d="M24.5,6 C14.2990778,6 6,14.2990778 6,24.5 C6,34.7009222 14.2990778,43 24.5,43 C34.7009222,43 43,34.7009222 43,24.5 C43,14.2990778 34.7009222,6 24.5,6 Z M24.5,40.597373 C15.6238448,40.597373 8.40262705,33.3761552 8.40262705,24.5 C8.40262705,15.6238448 15.6238448,8.40262705 24.5,8.40262705 C33.3761552,8.40262705 40.597373,15.6238448 40.597373,24.5 C40.597373,33.3761552 33.3761552,40.597373 24.5,40.597373 Z" id="Shape" fill="#000000" fill-rule="nonzero"></path>
            <path d="M28.1557233,22.9639291 C28.9177892,21.9808196 29.3724836,20.7514471 29.3724836,19.4180077 L29.3724836,17.8277407 C29.3724836,14.6142988 26.7381682,12 23.5001224,12 C20.2620765,12 17.6277611,14.6142988 17.6277611,17.8277407 L17.6277611,19.4180077 C17.6277611,20.7514471 18.0823332,21.980941 18.8445214,22.9639291 C14.9534336,23.6921538 12,27.0884715 12,31.1586127 L12,31.7859278 C12,32.4564726 12.547689,33 13.2233678,33 L33.7766322,33 C34.452311,33 35,32.4564726 35,31.7859278 L35,31.1586127 C35.0002447,27.088593 32.0468112,23.6922752 28.1557233,22.9639291 Z M20.0746191,17.8277407 C20.0746191,15.953324 21.6113541,14.4282658 23.5001224,14.4282658 C25.3888907,14.4282658 26.9256256,15.953324 26.9256256,17.8277407 L26.9256256,19.4180077 C26.9256256,21.2924244 25.3888907,22.8174827 23.5001224,22.8174827 C21.6113541,22.8174827 20.0746191,21.2924244 20.0746191,19.4180077 L20.0746191,17.8277407 Z M14.47598,30.5717342 C14.7738072,27.585855 17.319166,25.2457485 20.4049945,25.2457485 L26.5953726,25.2457485 C29.6812011,25.2457485 32.2265598,27.585855 32.5243871,30.5717342 L14.47598,30.5717342 Z" id="Shape" fill="#000000" fill-rule="nonzero"></path>
            <path d="M53,5 C53.5523105,5 54,4.44783346 54,3.76663069 L54,2.23336931 C54,1.55216654 53.5523105,1 53,1 C52.4476896,1 52,1.55216654 52,2.23336931 L52,3.76650732 C51.9999,4.4477101 52.4475895,5 53,5 Z" id="Path" fill="#000000"></path>
            <path d="M53,13 C53.5523105,13 54,12.4478164 54,11.7665926 L54,10.2334074 C54,9.55218357 53.5523105,9 53,9 C52.4476896,9 52,9.55218357 52,10.2334074 L52,11.7665926 C51.9999,12.4478164 52.4475895,13 53,13 Z" id="Path" fill="#000000"></path>
            <path d="M55.2334074,8 L56.7665926,8 C57.4478164,8 58,7.55231046 58,7 C58,6.44768954 57.4478164,6 56.7665926,6 L55.2334074,6 C54.5521836,6 54,6.44768954 54,7 C54,7.55231046 54.5521836,8 55.2334074,8 Z" id="Path" fill="#000000"></path>
            <path d="M48.2334074,8 L49.7665926,8 C50.4478164,8 51,7.55231046 51,7 C51,6.44768954 50.4478164,6 49.7665926,6 L48.2334074,6 C47.5521836,6 47,6.44768954 47,7 C47,7.55231046 47.5521836,8 48.2334074,8 Z" id="Path" fill="#000000"></path>
            <path d="M7,49 C6.44768954,49 6,49.5521836 6,50.2334074 L6,51.7665926 C6,52.4478164 6.44768954,53 7,53 C7.55231046,53 8,52.4478164 8,51.7665926 L8,50.2334074 C8,49.5521836 7.55231046,49 7,49 Z" id="Path" fill="#000000"></path>
            <path d="M7,56 C6.44768954,56 6,56.5521836 6,57.2334074 L6,58.7665926 C6,59.4478164 6.44768954,60 7,60 C7.55231046,60 8,59.4478164 8,58.7665926 L8,57.2334074 C8,56.5521836 7.55231046,56 7,56 Z" id="Path" fill="#000000"></path>
            <path d="M11.7665926,53 L10.2334074,53 C9.55218357,53 9,53.4476895 9,54 C9,54.5523105 9.55218357,55 10.2334074,55 L11.7665926,55 C12.4478164,55 13,54.5523105 13,54 C13,53.4476895 12.4478164,53 11.7665926,53 Z" id="Path" fill="#000000"></path>
            <path d="M4.76659265,53 L3.23340735,53 C2.55218357,53 2,53.4476895 2,54 C2,54.5523105 2.55218357,55 3.23340735,55 L4.76659265,55 C5.44781643,55 6,54.5523105 6,54 C6,53.4476895 5.44781643,53 4.76659265,53 Z" id="Path" fill="#000000"></path>
        </g>
    </g>
</svg>