<?xml version="1.0" encoding="UTF-8"?>
<svg width="107px" height="109px" viewBox="0 0 107 109" version="1.1" xmlns="http://www.w3.org/2000/svg" xmlns:xlink="http://www.w3.org/1999/xlink">
    <!-- Generator: Sketch 52.2 (67145) - http://www.bohemiancoding.com/sketch -->
    <title>lost abd found</title>
    <desc>Created with Sketch.</desc>
    <g id="lost-abd-found" stroke="none" stroke-width="1" fill="none" fill-rule="evenodd">
        <g id="Group-3-Copy" transform="translate(19.000000, 16.000000)">
            <path d="M70,11.5910421 L70,60.5755959 C68.0296873,62.8743232 65.7626715,64.9734807 63.2487715,66.8283929 C55.6465407,72.4395684 45.7825651,75.8269654 35.000085,75.8269654 C28.7552072,75.8269654 22.8194447,74.6906811 17.4520939,72.6436939 C15.1335589,71.7607663 12.921633,70.7073667 10.8375699,69.5018648 C9.41271488,68.6803659 8.05009097,67.7865633 6.75122847,66.8283929 C4.23732848,64.9734807 1.97031269,62.8743232 5.68434189e-14,60.5755959 L5.68434189e-14,11.5910421 C5.68434189e-14,8.50299986 2.89595838,6 6.46880792,6 L63.5310221,6 C67.1040416,6.00014696 70,8.50299986 70,11.5910421 Z" id="Path" fill="#343A6E"></path>
            <path d="M63.4975431,22.5240686 L63.4975431,67.2366812 C55.8953123,72.8477097 46.0313366,76.2351067 35.2488565,76.2351067 C29.0039787,76.2351067 23.0682162,75.0988224 17.7008655,73.0518353 C15.3823304,72.1689076 13.1704045,71.115508 11.0863415,69.9100061 C9.66148641,69.0885072 8.2988625,68.1947047 7,67.2365342 L7,22.5240686 C7,20.5770134 8.8245966,19 11.0756295,19 L59.4198732,19 C61.6710761,18.999853 63.4975431,20.5768664 63.4975431,22.5240686 Z" id="Path" fill="#F0F0F0"></path>
            <path d="M52.6443813,6.91925449 L52.6443813,16.8113357 C52.6443813,18.6602225 50.9121113,20.1572904 48.7731284,20.1572904 L21.871253,20.1572904 C19.7321,20.1572904 18,18.6600756 18,16.8113357 L18,6.91925449 C18,5.07036762 19.7322701,3.57329977 21.871253,3.57329977 L28.6439053,3.57329977 C29.8662541,1.45577247 32.3980072,2.30926389e-14 35.3223607,2.30926389e-14 C35.7771921,2.30926389e-14 36.2231819,0.0352700779 36.6548892,0.102871061 C38.7015456,0.420742638 40.4569398,1.46179777 41.5566966,2.90684225 C41.5709792,2.92521209 41.5833914,2.94211233 41.5958036,2.96062912 C41.7005424,3.10038681 41.8001802,3.24470021 41.8908065,3.39209974 C41.9316138,3.45661459 41.9690205,3.51804331 42.0009862,3.57329977 L48.7736385,3.57329977 C50.9122813,3.57329977 52.6443813,5.07051457 52.6443813,6.91925449 Z" id="Path" fill="#F2AE5A"></path>
            <path d="M51.9794943,6.91925449 L51.9794943,16.8113357 C51.9794943,18.6602225 50.2472243,20.1572904 48.1082414,20.1572904 L23.871253,20.1572904 C21.7321,20.1572904 20,18.6600756 20,16.8113357 L20,6.91925449 C20,5.07036762 21.7322701,3.57329977 23.871253,3.57329977 L27.9788482,3.57329977 C29.201197,1.45577247 31.7329502,2.30926389e-14 34.6573037,2.30926389e-14 C35.1121351,2.30926389e-14 35.5581249,0.0352700779 35.9898322,0.102871061 C38.0364885,0.420742638 39.7918827,1.46179777 40.8916396,2.90684225 C40.9059222,2.92521209 40.9183344,2.94211233 40.9307466,2.96062912 C41.044497,3.11875664 41.1439648,3.26468659 41.2257494,3.39209974 C41.2665567,3.45661459 41.3039634,3.51804331 41.3359291,3.57329977 L48.1085814,3.57329977 C50.2473943,3.57329977 51.9794943,5.07051457 51.9794943,6.91925449 Z" id="Path" fill="#F9DF73"></path>
            <ellipse id="Oval" fill="#343A6E" cx="34.5761311" cy="6.22657063" rx="2.57613113" ry="2.22657063"></ellipse>
            <path d="M45.0531685,15.2245669 L25.8654039,15.2245669 C24.8351895,15.2245669 24,14.5027059 24,13.6122834 C24,12.7218609 24.8351895,12 25.8654039,12 L45.0531685,12 C46.0833829,12 46.9185724,12.7218609 46.9185724,13.6122834 C46.9187425,14.5027059 46.083553,15.2245669 45.0531685,15.2245669 Z" id="Path" fill="#F2AE5A"></path>
            <path d="M23.9695816,39.7452835 L12.776648,39.7452835 C11.7955724,39.7452835 11,39.0578109 11,38.2097125 L11,28.535571 C11,27.6874726 11.7955724,27 12.776648,27 L23.9695816,27 C24.9506572,27 25.7462296,27.6874726 25.7462296,28.535571 L25.7462296,38.2097125 C25.7462296,39.0578109 24.9506572,39.7452835 23.9695816,39.7452835 Z M14.5534661,36.6741415 L22.1931036,36.6741415 L22.1931036,30.071142 L14.5534661,30.071142 L14.5534661,36.6741415 Z" id="Shape" fill="#5897D1" fill-rule="nonzero"></path>
            <g id="Group" transform="translate(28.000000, 28.000000)" fill="#484B7F">
                <path d="M12.7086864,3.05028571 L1.80210651,3.05028571 C0.846130178,3.05028571 0.0709112426,2.382 0.0709112426,1.55757143 C0.0709112426,0.733142857 0.846130178,0.0648571429 1.80210651,0.0648571429 L12.7086864,0.0648571429 C13.6646627,0.0648571429 14.4398817,0.733142857 14.4398817,1.55757143 C14.4398817,2.382 13.6646627,3.05028571 12.7086864,3.05028571 Z" id="Path"></path>
                <path d="M26.2119763,8.87185714 L1.80227219,8.87185714 C0.846295858,8.87185714 0.0710769231,8.20357143 0.0710769231,7.37914286 C0.0710769231,6.55471429 0.846295858,5.88642857 1.80227219,5.88642857 L26.212142,5.88642857 C27.1681183,5.88642857 27.9433373,6.55471429 27.9433373,7.37914286 C27.9433373,8.20357143 27.1679527,8.87185714 26.2119763,8.87185714 Z" id="Path"></path>
            </g>
            <path d="M23.9695816,55.7452835 L12.776648,55.7452835 C11.7955724,55.7452835 11,55.0578109 11,54.2097125 L11,44.535571 C11,43.6874726 11.7955724,43 12.776648,43 L23.9695816,43 C24.9506572,43 25.7462296,43.6874726 25.7462296,44.535571 L25.7462296,54.2097125 C25.7462296,55.0578109 24.9506572,55.7452835 23.9695816,55.7452835 Z M14.5534661,52.6741415 L22.1931036,52.6741415 L22.1931036,46.071142 L14.5534661,46.071142 L14.5534661,52.6741415 Z" id="Shape" fill="#5897D1" fill-rule="nonzero"></path>
            <g id="Group" transform="translate(28.000000, 44.000000)" fill="#484B7F">
                <path d="M12.7086864,3.07741935 L1.80210651,3.07741935 C0.846130178,3.07741935 0.0709112426,2.39835484 0.0709112426,1.56062903 C0.0709112426,0.722903226 0.846130178,0.0438387097 1.80210651,0.0438387097 L12.7086864,0.0438387097 C13.6646627,0.0438387097 14.4398817,0.722903226 14.4398817,1.56062903 C14.4398817,2.39835484 13.6646627,3.07741935 12.7086864,3.07741935 Z" id="Path"></path>
                <path d="M26.2119763,8.9928871 L1.80227219,8.9928871 C0.846295858,8.9928871 0.0710769231,8.31382258 0.0710769231,7.47609677 C0.0710769231,6.63837097 0.846295858,5.95930645 1.80227219,5.95930645 L26.212142,5.95930645 C27.1681183,5.95930645 27.9433373,6.63837097 27.9433373,7.47609677 C27.9431716,8.31382258 27.1679527,8.9928871 26.2119763,8.9928871 Z" id="Path"></path>
            </g>
            <path d="M23.9695816,59 L12.776648,59 C11.7959125,59 11,59.6879135 11,60.535571 L11,68.6034544 C13.084063,69.8088093 15.295989,70.862209 17.614524,71.7452835 L23.9695816,71.7452835 C24.9503171,71.7452835 25.7462296,71.05737 25.7462296,70.2097125 L25.7462296,60.535571 C25.7462296,59.6879135 24.9503171,59 23.9695816,59 Z M22.1929335,68.6739945 L14.553296,68.6739945 L14.553296,62.0709951 L22.1929335,62.0709951 L22.1929335,68.6739945 Z" id="Shape" fill="#5897D1" fill-rule="nonzero"></path>
            <g id="Group" transform="translate(28.000000, 61.000000)" fill="#484B7F">
                <path d="M12.7086864,3.0555 L1.80210651,3.0555 C0.846130178,3.0555 0.0709112426,2.37643548 0.0709112426,1.53870968 C0.0709112426,0.700983871 0.846130178,0.0219193548 1.80210651,0.0219193548 L12.7086864,0.0219193548 C13.6646627,0.0219193548 14.4398817,0.700983871 14.4398817,1.53870968 C14.4398817,2.37643548 13.6646627,3.0555 12.7086864,3.0555 Z" id="Path"></path>
                <path d="M26.2119763,8.97096774 L1.80227219,8.97096774 C0.846295858,8.97096774 0.0710769231,8.29190323 0.0710769231,7.45417742 C0.0710769231,6.61645161 0.846295858,5.9373871 1.80227219,5.9373871 L26.212142,5.9373871 C27.1681183,5.9373871 27.9433373,6.61645161 27.9433373,7.45417742 C27.9431716,8.29190323 27.1679527,8.97096774 26.2119763,8.97096774 Z" id="Path"></path>
            </g>
            <path d="M18.4616314,54.7417925 C17.8707756,54.7417925 17.3146061,54.4871131 16.9838969,54.0579939 L11.2985892,46.6872824 C10.7543218,45.9817338 10.9748513,45.0282661 11.7913374,44.5578514 C12.6078236,44.0874367 13.710811,44.2780421 14.2550784,44.9838846 L18.1997845,50.0978989 L23.2524089,40.8785944 C23.6722141,40.112205 24.7316737,39.7850751 25.6185525,40.1482099 C26.5052612,40.5111978 26.8835789,41.4268972 26.4636037,42.1932866 L20.0677389,53.8634206 C19.7938199,54.3633739 19.2296589,54.697264 18.5913646,54.7376776 C18.5476668,54.7404699 18.5044791,54.7417925 18.4616314,54.7417925 Z" id="Path" fill="#EF487D"></path>
        </g>
    </g>
</svg>