<?xml version="1.0" encoding="UTF-8"?>
<svg width="103px" height="94px" viewBox="0 0 103 94" version="1.1" xmlns="http://www.w3.org/2000/svg" xmlns:xlink="http://www.w3.org/1999/xlink">
    <!-- Generator: Sketch 52.2 (67145) - http://www.bohemiancoding.com/sketch -->
    <title>lost abd found</title>
    <desc>Created with Sketch.</desc>
    <g id="lost-abd-found" stroke="none" stroke-width="1" fill="none" fill-rule="evenodd">
        <g id="recruitment-copy" transform="translate(17.000000, 12.000000)">
            <path d="M25,51.4445531 L8.57217922,67.8723739 C7.06867771,69.3758754 4.63112764,69.3758754 3.12762613,67.8723739 C1.62412462,66.3688724 1.62412462,63.9313223 3.12762613,62.4278208 L19.5554469,46 L25,51.4445531 Z" id="Path" fill="#58BFFF"></path>
            <path d="M63,32.4444598 L63,33.5555402 C63,36.0101687 60.9853028,38 58.5,38 C56.0146972,38 54,36.0101687 54,33.5555402 L54,32.4444598 C54,29.9898313 56.0146972,28 58.5,28 C60.9853028,28 63,29.9898313 63,32.4444598 Z" id="Path" fill="#FFCDAC"></path>
            <path d="M61.4895958,38 L55.5104042,38 C51.3624488,38 48,41.2669173 48,45.296724 L48,48 L69,48 L69,45.296724 C69,41.266783 65.637413,38 61.4895958,38 Z" id="Path" fill="#FFBC53"></path>
            <path d="M7,32.4444598 L7,33.5555402 C7,36.0101687 9.01469717,38 11.5,38 C13.9853028,38 16,36.0101687 16,33.5555402 L16,32.4444598 C16,29.9898313 13.9853028,28 11.5,28 C9.01469717,28 7,29.9898313 7,32.4444598 Z" id="Path" fill="#FFCDAC"></path>
            <path d="M8.51040419,38 L14.4895958,38 C18.6375512,38 22,41.2669173 22,45.296724 L22,48 L1,48 L1,45.296724 C1,41.266783 4.36258703,38 8.51040419,38 Z" id="Path" fill="#95E540"></path>
            <circle id="Oval" fill="#A5DDFF" cx="35" cy="35" r="19"></circle>
            <circle id="Oval" fill="#FFFFFF" cx="35" cy="35" r="13"></circle>
            <path d="M40,33.0000143 L40,33.9999857 C40,36.2091141 37.9852605,38 35.5,38 C33.0147395,38 31,36.2091141 31,33.9999857 L31,33.0000143 C31,30.7908859 33.0147395,29 35.5,29 C37.9852605,28.9998713 40,30.7907572 40,33.0000143 Z" id="Path" fill="#FFCDAC"></path>
            <path d="M36,38 C31.9086863,38 28.4134071,40.6277769 27,44.3388512 C29.3599946,46.6092013 32.5222552,48 36,48 C39.4778797,48 42.6400054,46.6092013 45,44.3388512 C43.5865929,40.6277769 40.0913137,38 36,38 Z" id="Path" fill="#FE6663"></path>
            <path d="M63.0183203,36.9904564 C63.6368359,36.0811011 63.9983203,34.9862958 63.9983203,33.8093395 L63.9983203,32.7219903 C63.9983203,29.5765264 61.4173437,27.0173718 58.2450586,27.0173718 C56.6622656,27.0173718 55.2267187,27.6546525 54.1854687,28.6838453 C51.4912891,20.7389159 43.9090039,15 35,15 C26.0909961,15 18.5087109,20.7387803 15.8145312,28.6838453 C14.7732812,27.6546525 13.3378711,27.0173718 11.7549414,27.0173718 C8.58265625,27.0173718 6.00167969,29.5765264 6.00167969,32.7219903 L6.00167969,33.8093395 C6.00167969,34.9862958 6.36316406,36.0811011 6.98167969,36.9904564 C2.99919922,37.8225409 0,41.3329398 0,45.5256263 L0,48.2550479 C0,49.0036257 0.612226562,49.6106759 1.3671875,49.6106759 L8.4765625,49.6106759 C9.23152344,49.6106759 9.84375,49.0036257 9.84375,48.2550479 C9.84375,47.50647 9.23152344,46.8994198 8.4765625,46.8994198 L2.734375,46.8994198 L2.734375,45.5256263 C2.734375,42.210709 5.45425781,39.5138225 8.79744141,39.5138225 L15.2682031,39.5138225 C15.7929297,41.8022582 16.7126367,43.9436083 17.9534961,45.8623643 L2.35402344,61.3299451 C0.3565625,63.3106533 0.3565625,66.533659 2.35416016,68.5145028 C3.35302734,69.5049246 4.66484375,70 5.97693359,70 C7.28902344,70 8.60111328,69.5047891 9.59998047,68.5145028 L18.2,59.9870599 C18.7338867,59.4576872 18.7338867,58.5993035 18.2,58.0697951 C17.6659766,57.5405579 16.8005469,57.5405579 16.2663867,58.0697951 L7.66650391,66.597238 C6.73476562,67.5209629 5.21910156,67.5208274 4.2875,66.5973735 C3.35603516,65.6736486 3.35603516,64.1706637 4.2875,63.2469387 L19.600957,48.0630909 C23.3151953,52.3823931 28.8401367,55.126591 35,55.126591 C44.6151562,55.126591 52.6845703,48.441989 54.7317969,39.5138225 L61.2025586,39.5138225 C64.5457422,39.5138225 67.265625,42.210709 67.265625,45.5256263 L67.265625,46.8994198 L54.4140625,46.8994198 C53.6591016,46.8994198 53.046875,47.50647 53.046875,48.2550479 C53.046875,49.0036257 53.6591016,49.6106759 54.4140625,49.6106759 L68.6328125,49.6106759 C69.3877734,49.6106759 70,49.0036257 70,48.2550479 L70,45.5256263 C70,41.3329398 67.0008008,37.8225409 63.0183203,36.9904564 Z M55.2260352,32.7221258 C55.2260352,31.0715131 56.5802344,29.7287635 58.2449219,29.7287635 C59.9096094,29.7287635 61.2638086,31.0715131 61.2638086,32.7221258 L61.2638086,33.8094751 C61.2638086,35.4599523 59.9096094,36.8027019 58.2449219,36.8027019 C56.5802344,36.8027019 55.2260352,35.4599523 55.2260352,33.8094751 L55.2260352,32.7221258 Z M8.73605469,32.7221258 C8.73605469,31.0715131 10.0902539,29.7287635 11.7549414,29.7287635 C13.4196289,29.7287635 14.7738281,31.0715131 14.7738281,32.7221258 L14.7738281,33.8094751 C14.7738281,35.4599523 13.4196289,36.8027019 11.7549414,36.8027019 C10.0902539,36.8027019 8.73605469,35.4599523 8.73605469,33.8094751 C8.73605469,33.8094751 8.73605469,32.7221258 8.73605469,32.7221258 Z M35,52.4153349 C25.3505273,52.4153349 17.5,44.6311829 17.5,35.0632955 C17.5,25.4954081 25.3505273,17.7112561 35,17.7112561 C44.6494727,17.7112561 52.5,25.4954081 52.5,35.0632955 C52.5,44.6311829 44.6494727,52.4153349 35,52.4153349 Z" id="Shape" fill="#000000" fill-rule="nonzero"></path>
            <path d="M36,19 C27.7288889,19 21,25.7288889 21,34 C21,38.2930556 22.8133333,42.1701389 25.7136111,44.9069444 C25.7631944,44.9605556 25.8163889,45.0111111 25.8747222,45.0569444 C28.545,47.5043056 32.1009722,49 36,49 C39.8990278,49 43.455,47.5041667 46.1252778,45.0569444 C46.1836111,45.01125 46.2368056,44.9605556 46.2863889,44.9069444 C49.1866667,42.1701389 51,38.2930556 51,34 C51,25.7290278 44.2711111,19 36,19 Z M28.4309722,43.5897222 C29.9066667,40.7975 32.7825,39.0406944 36,39.0406944 C39.2175,39.0406944 42.0933333,40.7975 43.5690278,43.5897222 C41.4859722,45.2373611 38.8559722,46.2222222 36,46.2222222 C33.1440278,46.2222222 30.5140278,45.2373611 28.4309722,43.5897222 Z M33.0731944,33.3361111 L33.0731944,32.2570833 C33.0731944,30.6431944 34.3861111,29.3302778 36,29.3302778 C37.6138889,29.3302778 38.9268056,30.6431944 38.9268056,32.2570833 L38.9268056,33.3361111 C38.9268056,34.95 37.6138889,36.2629167 36,36.2629167 C34.3861111,36.2629167 33.0731944,34.95 33.0731944,33.3361111 Z M45.6006944,41.5554167 C44.3283333,39.5252778 42.4659722,37.9770833 40.28625,37.0943056 C41.1680556,36.0897222 41.7045833,34.7748611 41.7045833,33.33625 L41.7045833,32.2572222 C41.7045833,29.1118056 39.1454167,26.5526389 36,26.5526389 C32.8545833,26.5526389 30.2954167,29.1118056 30.2954167,32.2572222 L30.2954167,33.33625 C30.2954167,34.7748611 30.8318056,36.0897222 31.71375,37.0943056 C29.5340278,37.9772222 27.6718056,39.5252778 26.3993056,41.5554167 C24.7581944,39.4745833 23.7777778,36.8497222 23.7777778,34 C23.7777778,27.2606944 29.2606944,21.7777778 36,21.7777778 C42.7393056,21.7777778 48.2222222,27.2606944 48.2222222,34 C48.2222222,36.8497222 47.2418056,39.4745833 45.6006944,41.5554167 Z" id="Shape" fill="#000000" fill-rule="nonzero"></path>
            <path d="M21.5,54 C21.1055,54 20.7185,54.1605 20.4395,54.4395 C20.16065,54.7185 20,55.1055 20,55.5 C20,55.8945 20.1605,56.2815 20.4395,56.5605 C20.7185,56.83935 21.1055,57 21.5,57 C21.8945,57 22.2815,56.8395 22.5605,56.5605 C22.83935,56.2815 23,55.8945 23,55.5 C23,55.1055 22.8395,54.7185 22.5605,54.4395 C22.2815,54.1605 21.8945,54 21.5,54 Z" id="Path" fill="#000000"></path>
            <path d="M35.5,7 C36.3283,7 37,6.4197764 37,5.70427958 L37,1.29572042 C37,0.580223604 36.3283,0 35.5,0 C34.6717,0 34,0.580223604 34,1.29572042 L34,5.70427958 C34,6.41990597 34.6717,7 35.5,7 Z" id="Path" fill="#000000"></path>
            <path d="M35.5,12 C35.896,12 36.2815,11.8395 36.56035,11.56035 C36.83935,11.2815 37,10.8945 37,10.5 C37,10.1055 36.8395,9.7185 36.56035,9.4395 C36.2815,9.1605 35.89585,9 35.5,9 C35.10535,9 34.7185,9.16035 34.4395,9.4395 C34.1605,9.71865 34,10.1055 34,10.5 C34,10.8945 34.16035,11.2815 34.4395,11.56035 C34.7185,11.83935 35.10535,12 35.5,12 Z" id="Path" fill="#000000"></path>
            <path d="M43.3307187,9 C43.6713571,9 44.0117294,8.86999681 44.2715993,8.61025655 L46.610295,6.2715297 C47.1299017,5.75191612 47.1299017,4.90935704 46.610295,4.38961039 C46.0905553,3.87012987 45.2482735,3.87012987 44.7284007,4.38961039 L42.389705,6.72833724 C41.8700983,7.24795082 41.8700983,8.0905099 42.389705,8.61025655 C42.6497079,8.86999681 42.9900802,9 43.3307187,9 Z" id="Path" fill="#000000"></path>
            <path d="M26.2864447,9.53440191 C26.5968923,9.84469466 27.0036693,10 27.4104463,10 C27.8172232,10 28.2240002,9.84469466 28.5344478,9.53440191 C29.1551841,8.91365744 29.1551841,7.90711352 28.5344478,7.28621009 L25.7137142,4.46543913 C25.092819,3.84485362 24.0866064,3.84485362 23.4655522,4.46543913 C22.8448159,5.0861836 22.8448159,6.09272751 23.4655522,6.71363094 L26.2864447,9.53440191 Z" id="Path" fill="#000000"></path>
        </g>
    </g>
</svg>