<?xml version="1.0" encoding="UTF-8"?>
<svg width="103px" height="94px" viewBox="0 0 103 94" version="1.1" xmlns="http://www.w3.org/2000/svg" xmlns:xlink="http://www.w3.org/1999/xlink">
    <!-- Generator: Sketch 52.2 (67145) - http://www.bohemiancoding.com/sketch -->
    <title>lost abd found</title>
    <desc>Created with Sketch.</desc>
    <g id="lost-abd-found" stroke="none" stroke-width="1" fill="none" fill-rule="evenodd">
        <g id="car-copy" transform="translate(15.000000, 23.000000)">
            <path d="M68.9812284,29.9492784 C68.8785769,27.8782193 68.1073533,25.89428 66.8401921,24.2482806 C63.9825668,20.5355781 63.4255172,17.5879829 63.4255172,17.5879829 C61.1818294,11.7213173 59.1872368,7.81231455 57.72125,5.3313716 C56.1788026,2.72607237 53.5112727,0.97117338 50.5029794,0.585317618 C44.4535836,-0.195105873 25.5469865,-0.195105873 19.4975907,0.585317618 C16.4914095,0.973421629 13.8238796,2.72832061 12.2814322,5.3313716 C10.8154454,7.81231455 8.82310585,11.7213173 6.57716505,17.5879829 C6.57716505,17.5879829 6.02011541,20.5355781 3.16249018,24.2482806 C1.89758196,25.89428 1.1241053,27.8782193 1.02370682,29.9492784 C0.807420607,34.4425448 2.111756,35.4300883 3.27837791,45.5982166 C3.3701869,46.3983123 4.04734861,47 4.85574649,47 L65.1515825,47 C65.9599804,47 66.6371421,46.3960641 66.7289511,45.5982166 C67.0566191,42.7465936 68.0289213,36.9626916 68.0289213,36.9626916 C68.8806891,34.0871809 69.0664193,31.7435217 68.9812284,29.9492784 Z" id="Path" fill="#E95353"></path>
            <path d="M62,16.9554681 C60.2410793,12.6189027 58.4473076,8.83211275 56.6623537,5.81338118 C55.309467,3.53057918 52.9229501,1.9368235 50.2823996,1.58809464 C44.2562731,0.80073134 25.7221725,0.807212264 19.7394347,1.58809464 C17.0988842,1.9368235 14.7122274,3.53071708 13.3593406,5.81338118 C11.5504529,8.87058462 9.73288752,12.7086704 8,16.9554681 C25.9717274,18.3481773 44.0260332,18.3481773 62,16.9554681 Z" id="Path" fill="#168DE2"></path>
            <path d="M59.8053388,22.1889317 C59.0910061,22.4160793 58.4265004,22.7350619 57.8703903,23.0516784 C56.8576783,23.6253148 55.8178675,24.1599102 54.7328919,24.5775305 C52.9335836,25.2705081 52.6283568,26.3052422 52.6283568,26.3052422 C52.574159,26.3763737 52.5221466,26.4475052 52.4723196,26.5208549 C51.1070307,28.5789363 52.8994914,31.3184603 55.3204717,30.9697533 C58.8219111,30.4672484 61.7061951,29.4370986 63.1709923,28.8405405 C64.0096011,28.498636 64.6650739,27.7874689 64.8798253,26.8948499 C64.9002223,26.8099653 64.9182883,26.7250807 64.9340231,26.6424144 C65.472213,23.6964463 62.6240609,21.2964605 59.8053388,22.1889317 Z" id="Path" fill="#FFFFFF"></path>
            <path d="M63.3689081,38 L59.6322569,38 C59.070634,38 58.7887044,38.6787558 59.1855305,39.0778183 L62.9221817,42.8144695 C63.3190078,43.2112956 64,42.929366 64,42.3677431 L64,38.6310919 C63.9998602,38.2819297 63.7179306,38 63.3689081,38 Z" id="Path" fill="#FFE21F"></path>
            <path d="M66.8745662,45.6153259 C66.7822084,46.4267368 66.0987322,47.0373555 65.2856435,47.0373555 L58,47.0373555 L58,51.2792866 C58,52.7807521 59.2131171,54 60.7120901,54 L65.2879099,54 C66.7846165,54 68,52.7830257 68,51.2792866 L68,38 C67.6988455,39.8388191 67.1142432,43.5141837 66.8745662,45.6153259 Z" id="Path" fill="#454545"></path>
            <path d="M69.94888,14.7414992 C69.7328757,13.7039436 68.8239041,13 67.8326782,13 L66.0360292,13 C64.885027,13 63.952256,14.0005374 63.952256,15.234827 L63.952256,16.6080843 L63,16.6080843 L63.5462737,18 L65.6409028,18 C66.7249604,18 67.7981621,17.7498283 68.7828465,17.2659044 C69.6702456,16.8304923 70.1669719,15.7883094 69.94888,14.7414992 Z" id="Path" fill="#ED6262"></path>
            <circle id="Oval" fill="#FFBD49" cx="60.5" cy="25.5" r="2.5"></circle>
            <circle id="Oval" fill="#FFDB6F" cx="55" cy="28" r="2"></circle>
            <polygon id="Path" fill="#6F6F6F" points="50 28 46.9377591 33 22.0622409 33 19 28"></polygon>
            <path d="M17.5277974,26.5212321 C17.4803081,26.4478886 17.428303,26.376763 17.371782,26.3056375 C17.371782,26.3056375 17.0665979,25.2709905 15.2675414,24.5780713 C14.1827176,24.1604862 13.1452374,23.6259358 12.1304821,23.0523477 C11.5722647,22.7357579 10.9100371,22.4168021 10.1958043,22.1896736 C7.37966175,21.2949117 4.52972311,23.6969134 5.06536124,26.6427813 C5.08123956,26.7276588 5.09930296,26.8103181 5.11736636,26.8951956 C5.33208776,27.7875916 5.98746876,28.4988467 6.82596022,28.8407223 C8.29055248,29.4372303 11.1744328,30.4672933 14.677713,30.9697558 C17.1005396,31.3184335 18.8928952,28.5791401 17.5277974,26.5212321 Z" id="Path" fill="#FFFFFF"></path>
            <path d="M10.3677431,38 L6.63109191,38 C6.28192965,38 6,38.2819297 6,38.6310919 L6,42.3677431 C6,42.929366 6.6809922,43.2112956 7.07781832,42.8144695 L10.8144695,39.0778183 C11.2112956,38.6809922 10.929366,38 10.3677431,38 Z" id="Path" fill="#FFE21F"></path>
            <path d="M60.1887042,44.6528016 C56.2496722,37.7861554 51.7199411,38.0007425 51.7199411,38.0007425 L18.2775116,38.0007425 C18.2775116,38.0007425 13.7500448,37.7861554 9.80874851,44.6528016 L3,44.6528016 L3.08349604,45.5376706 C3.16034071,46.3694988 3.8498199,47 4.67529857,47 L65.3245599,47 C66.1501801,47 66.8395178,46.3694988 66.916504,45.5378132 L67,44.6529442 L60.1887042,44.6528016 Z" id="Path" fill="#777777"></path>
            <path d="M4.71425334,47.0372134 C3.90101142,47.0372134 3.21752557,46.424321 3.1253081,45.6151838 C2.88576933,43.5140416 2.29889226,39.8365455 2,38 L2,51.2792866 C2,52.7807521 3.21313426,54 4.71212851,54 L9.28787149,54 C10.7845993,54 12,52.7830257 12,51.2792866 L12,47.0373555 L4.71425334,47.0373555 L4.71425334,47.0372134 Z" id="Path" fill="#454545"></path>
            <path d="M6.04549921,16.6098085 L6.04549921,15.235895 C6.04549921,14.0008662 5.11257142,13 3.96377447,13 L2.16723084,13 C1.17612555,13 0.266997647,13.7044294 0.0509893034,14.7423315 C-0.16710675,15.7872525 0.331716642,16.8323228 1.21704466,17.2655536 C2.20383535,17.7498581 3.27496951,18 4.35904747,18 L6.45371601,18 L7,16.6074191 L6.04549921,16.6074191 L6.04549921,16.6098085 Z" id="Path" fill="#ED6262"></path>
            <circle id="Oval" fill="#FFBD49" cx="9.5" cy="25.5" r="2.5"></circle>
            <circle id="Oval" fill="#FFDB6F" cx="15" cy="28" r="2"></circle>
            <g id="Group" transform="translate(20.000000, 40.000000)" fill="#6F6F6F">
                <path d="M29.1925472,0.00426470588 L0.874386792,0.00426470588 C0.430896226,0.00426470588 0.0730188679,0.378382353 0.0730188679,0.837058824 C0.0730188679,1.29794118 0.430896226,1.66985294 0.874386792,1.66985294 L29.190283,1.66985294 C29.6337736,1.66985294 29.9916509,1.29573529 29.9916509,0.837058824 C29.9939151,0.376176471 29.6337736,0.00426470588 29.1925472,0.00426470588 Z" id="Path"></path>
                <path d="M29.1925472,3.32867647 L0.874386792,3.32867647 C0.430896226,3.32867647 0.0730188679,3.70279412 0.0730188679,4.16147059 C0.0730188679,4.62235294 0.430896226,4.99426471 0.874386792,4.99426471 L29.190283,4.99426471 C29.6337736,4.99426471 29.9916509,4.62014706 29.9916509,4.16147059 C29.9939151,3.70058824 29.6337736,3.32867647 29.1925472,3.32867647 Z" id="Path"></path>
            </g>
            <path d="M59.0660861,10.9992609 L59.0660861,11.2785607 C59.0660861,12.4026744 58.1692003,13.3033769 57.0552311,13.2564188 C56.0280393,13.1894387 55.2420046,12.2440828 55.2420046,11.1646225 L55.2420046,7.15532227 C55.2420046,6.20996632 54.4776642,5.49032617 53.559084,5.51495756 C53.5373897,5.51495756 53.5373897,5.51495756 53.5156953,5.51495756 C53.5156953,5.51495756 53.5156953,5.51495756 53.494001,5.51495756 C52.5754209,5.49263086 51.8110804,6.21227101 51.8110804,7.15532227 L51.8110804,10.7824757 C51.8110804,11.9065894 50.870806,12.8072919 49.7785312,12.7380071 C48.7513394,12.6933537 47.9653046,11.725671 47.9653046,10.6685375 L47.9653046,7.51514235 C47.9653046,6.5697864 47.2009642,5.78316612 46.2606897,5.78316612 L46.1303837,5.78316612 C45.2551923,5.78316612 44.5342405,6.52513299 44.5342405,7.42583553 L44.5342405,11.5267473 C44.5342405,12.6508609 43.6156604,13.5492588 42.5016912,13.5046054 C41.4744994,13.4376253 40.710159,12.4922693 40.710159,11.4128091 L40.710159,5.91496571 C40.710159,5.03889457 39.9675129,4.29692771 39.0923214,4.36390783 L38.9620155,4.36390783 C38.0651297,4.36390783 37.3464173,5.10587469 37.3464173,6.00657723 L37.3464173,11.6272895 C37.3464173,12.7067497 36.4951596,13.6051476 35.4245791,13.6051476 C34.3973873,13.6051476 33.5461296,12.7514031 33.5244353,11.6944137 L33.5244353,6.97670862 C33.5244353,5.89724839 32.7384005,4.95419713 31.7112087,4.88491232 C30.5972396,4.84025891 29.7003538,5.73865676 29.7003538,6.8627704 L29.6786595,11.2207994 C29.6786595,12.344913 28.7840131,13.2433109 27.6678045,13.1986575 C26.6602076,13.133838 25.8958672,12.2220441 25.8653552,11.189542 L25.8653552,6.07586204 C25.8653552,5.01426317 25.0900976,4.06444188 24.0585669,4.0019271 C22.9532755,3.95280835 22.0411337,4.8489015 22.0411337,5.97531984 L22.0411337,11.3322889 C22.0107616,12.4296105 21.1161152,13.3033769 20.0193616,13.2587235 C18.9921698,13.1917434 18.2278294,12.2463875 18.2278294,11.1669272 L18.2278294,7.15532227 C18.2278294,6.20996632 17.4417946,5.49032617 16.5232145,5.51495756 C16.5015202,5.51495756 16.5015202,5.51495756 16.5015202,5.51495756 C16.4798258,5.51495756 16.4798258,5.51495756 16.4798258,5.51495756 C15.5395513,5.49263086 14.7752109,6.21227101 14.7752109,7.15532227 L14.7752109,10.7824757 C14.7752109,11.9065894 13.8566308,12.8072919 12.764356,12.7380071 C11.8131643,12.6999797 11.1052292,11.882102 10.9837409,10.9344414 C9.97390459,13.0865918 8.97288597,15.4174999 8,17.9071437 C25.9717274,19.3642854 44.0282726,19.3642854 62,17.9071437 C61.0313129,15.410874 60.0497492,13.1089185 59.0660861,10.9992609 Z" id="Path" fill="#3AA2EB"></path>
        </g>
    </g>
</svg>