<?xml version="1.0" encoding="UTF-8"?>
<svg width="107px" height="103px" viewBox="0 0 107 103" version="1.1" xmlns="http://www.w3.org/2000/svg" xmlns:xlink="http://www.w3.org/1999/xlink">
    <!-- Generator: Sketch 52.2 (67145) - http://www.bohemiancoding.com/sketch -->
    <title>tenant information</title>
    <desc>Created with Sketch.</desc>
    <g id="tenant-information" stroke="none" stroke-width="1" fill="none" fill-rule="evenodd">
        <g id="Group-Copy-15" transform="translate(15.000000, 17.000000)">
            <path d="M74.3453212,32.5694364 L63.9252643,23.030796 L63.9252643,6.38001162 C63.9252643,5.87797792 63.508462,5.37594422 62.9249388,5.37594422 L54.0887306,5.37594422 C53.5885678,5.37594422 53.0884051,5.79430564 53.0884051,6.38001162 L53.0884051,13.1574666 L39.9174532,0.94131319 C38.5003255,-0.313771063 36.4163141,-0.313771063 34.9991863,0.94131319 L0.654678832,32.5694364 C-0.67908845,33.7408483 0.154516102,36 1.98844611,36 L7.15679433,36 L37.5,7.55142359 L67.8432057,36 L73.0115539,36 C74.8454839,36 75.6790884,33.8245206 74.3453212,32.5694364 Z" id="Path" fill="#434A89"></path>
            <path d="M60.9627652,60.122708 L60.5216592,60.122708 C60.5216592,60.0479549 60.5216592,59.9732017 60.5216592,59.8236953 L60.5216592,36.0521862 L37.2900769,14 L13.984977,36.0521862 L13.984977,59.8236953 C13.984977,59.8984485 13.984977,60.0479549 13.984977,60.122708 L13.102765,60.122708 C12.5146237,60.122708 12,60.6459803 12,61.2440056 L12,65.8787024 C12,66.4767278 12.5146237,67 13.102765,67 L60.8892475,67 C61.4773889,67 61.9920125,66.4767278 61.9920125,65.8787024 L61.9920125,61.2440056 C62.0655302,60.6459803 61.6244242,60.122708 60.9627652,60.122708 Z M43.0508183,32.849538 C45.9219064,32.9981214 48.3623313,35.4497468 48.5058857,38.4214139 C48.6494401,41.170206 46.9985645,43.473248 44.6299167,44.2904565 L44.7734711,44.3647481 C45.2041344,45.0333733 45.778352,45.2562483 46.3525696,45.33054 C49.0083262,45.77629 50.372093,47.7821653 50.372093,50.7538325 L50.372093,54.8398748 C50.372093,55.6570832 49.7260982,56.4 48.8647717,56.4 L43.5532587,56.4 L43.5532587,53.2797495 C43.5532587,50.0852074 42.3330462,47.633582 40.1797301,46.2963318 C41.2563882,44.7362065 41.902383,42.8789146 41.7588286,40.8730393 C41.6152742,38.4214139 40.4668389,36.1926636 38.744186,34.7811217 C39.7490669,33.5181631 41.3281654,32.7752464 43.0508183,32.849538 Z M25.9534884,53.1081668 C25.9534884,50.135857 27.3211517,48.1295478 29.9844961,47.6837014 C30.5603544,47.6093936 31.2081949,47.2378549 31.5681063,46.7177007 L31.7120709,46.6433929 C29.4806202,45.8260077 27.8250277,43.6710831 27.8250277,41.070312 C27.8250277,37.8007711 30.3444075,35.2 33.5116279,35.2 C33.5836102,35.2 33.6555925,35.2 33.7275748,35.2 C36.606866,35.3486155 39.0542636,37.8007711 39.1982281,40.773081 C39.3421927,43.5224676 37.6866002,45.8260077 35.3111849,46.6433929 L35.4551495,46.7177007 C35.8870432,47.3864704 36.4629014,47.6093936 37.0387597,47.6837014 C39.7021041,48.1295478 41.0697674,50.135857 41.0697674,53.1081668 L41.0697674,57.1950929 C41.0697674,58.0124781 40.4219269,58.7555556 39.5581395,58.7555556 L27.4651163,58.7555556 C26.6733112,58.7555556 25.9534884,58.0867858 25.9534884,57.1950929 L25.9534884,53.1081668 Z" id="Shape" stroke="#3A3A3A" fill="#5E7BB0" fill-rule="nonzero"></path>
        </g>
    </g>
</svg>